<?xml version="1.0" encoding="utf-8"?>
<!-- Generator: Adobe Illustrator 23.0.0, SVG Export Plug-In . SVG Version: 6.00 Build 0)  -->
<svg version="1.1" id="레이어_1" xmlns="http://www.w3.org/2000/svg" xmlns:xlink="http://www.w3.org/1999/xlink" x="0px"
	 y="0px" viewBox="0 0 595.3 841.9" style="enable-background:new 0 0 595.3 841.9;" xml:space="preserve">
<style type="text/css">
	.st0{fill:#1F3A89;}
	.st1{opacity:0.25;}
	.st2{clip-path:url(#SVGID_2_);}
	.st3{clip-path:url(#SVGID_4_);fill:#E17C64;}
	.st4{clip-path:url(#SVGID_4_);fill:#F7C016;}
	.st5{clip-path:url(#SVGID_4_);}
	.st6{clip-path:url(#SVGID_6_);fill:#83807D;}
	.st7{clip-path:url(#SVGID_6_);fill:#FDE2A4;}
	.st8{clip-path:url(#SVGID_6_);fill:#FDE3A9;}
	.st9{clip-path:url(#SVGID_6_);fill:#777779;}
	.st10{clip-path:url(#SVGID_6_);fill:#BBBF4E;}
	.st11{clip-path:url(#SVGID_6_);fill:#F0EEDF;}
	.st12{clip-path:url(#SVGID_6_);fill:#E3E5BC;}
	.st13{clip-path:url(#SVGID_6_);fill:#007DB5;}
	.st14{clip-path:url(#SVGID_6_);fill:#B8BAAF;}
	.st15{clip-path:url(#SVGID_6_);fill:#E3E4B9;}
	.st16{opacity:0.48;clip-path:url(#SVGID_6_);}
	.st17{clip-path:url(#SVGID_8_);fill:#231F20;}
	.st18{clip-path:url(#SVGID_8_);fill:none;stroke:#231F20;stroke-width:0.7714;stroke-miterlimit:10;}
	.st19{clip-path:url(#SVGID_10_);fill:#231F20;}
	.st20{clip-path:url(#SVGID_10_);fill:none;stroke:#231F20;stroke-width:0.7714;stroke-miterlimit:10;}
</style>
<g>
	<g>
		<path class="st0" d="M42.5,793.7V42.5h510.2v751.2H42.5z M43,43v750.2h509.3V43H43z"/>
		<g>
			<g>
				<g>
					<polygon class="st0" points="63.8,89.6 63.8,63.3 89.2,63.3 89.2,63.8 64.3,63.8 64.3,89.6 					"/>
					<path class="st0" d="M64.1,62.2c0.8,0,1.4,0.6,1.4,1.4c0,0.8-0.6,1.4-1.4,1.4c-0.8,0-1.4-0.6-1.4-1.4
						C62.7,62.8,63.3,62.2,64.1,62.2z"/>
				</g>
				<path class="st0" d="M48.6,758.7V77.9h20.1v-8H57.5V57.2h13.1V68h9.3V50.6h432.7v1.9H81.8V70H70.6v9.9H50.5v678.9L48.6,758.7
					L48.6,758.7z M59.4,59.1V68h9.3v-8.9C68.7,59.1,59.4,59.1,59.4,59.1z"/>
			</g>
			<g>
				<g>
					<polygon class="st0" points="504.2,63.8 504.2,63.3 529.6,63.3 529.6,89.6 529.1,89.6 529.1,63.8 					"/>
					<path class="st0" d="M529.4,62.2c-0.8,0-1.4,0.6-1.4,1.4c0,0.8,0.6,1.4,1.4,1.4s1.4-0.6,1.4-1.4S530.1,62.2,529.4,62.2z"/>
				</g>
				<path class="st0" d="M79.9,52.5v-1.9h433.7V68h9.3V57.2H536v12.7h-11.2v8h20.1v680.8H543V79.8h-20.1v-9.9h-11.2V52.5H79.9z
					 M524.7,59.1V68h9.3v-8.9H524.7z"/>
			</g>
			<g>
				<g>
					<polygon class="st0" points="63.8,774.3 63.8,748.1 64.3,748.1 64.3,773.8 89.2,773.8 89.2,774.3 					"/>
					<path class="st0" d="M64.1,775.5c0.8,0,1.4-0.6,1.4-1.4s-0.6-1.4-1.4-1.4c-0.8,0-1.4,0.6-1.4,1.4
						C62.7,774.8,63.3,775.5,64.1,775.5z"/>
				</g>
				<path class="st0" d="M48.6,759.7v-1.9h22v9.9h11.2v17.5h432.7v1.9H79.9v-17.5h-9.3v10.8H57.5v-12.8h11.2v-8L48.6,759.7
					L48.6,759.7z M59.4,769.6v8.9h9.3v-8.9H59.4z"/>
			</g>
			<g>
				<g>
					<polygon class="st0" points="506.1,774.3 506.1,773.8 531,773.8 531,748.1 531.5,748.1 531.5,774.3 					"/>
					<path class="st0" d="M531.3,775.5c-0.8,0-1.4-0.6-1.4-1.4s0.6-1.4,1.4-1.4s1.4,0.6,1.4,1.4C532.7,774.8,532,775.5,531.3,775.5z
						"/>
				</g>
				<path class="st0" d="M80.8,787v-1.9h432.7v-17.5h11.2v-9.9h20.1v1.9h-18.2v8h11.2v12.8h-13.1v-10.8h-9.3v17.5L80.8,787L80.8,787
					z M526.7,769.6v8.9h9.3v-8.9H526.7z"/>
			</g>
		</g>
	</g>
</g>
<g class="st1">
	<g>
		<defs>
			<rect id="SVGID_1_" x="68" y="96.2" width="459.2" height="649.5"/>
		</defs>
		<clipPath id="SVGID_2_">
			<use xlink:href="#SVGID_1_"  style="overflow:visible;"/>
		</clipPath>
		<g class="st2">
			<defs>
				<rect id="SVGID_3_" x="68" y="96.2" width="459.2" height="649.5"/>
			</defs>
			<clipPath id="SVGID_4_">
				<use xlink:href="#SVGID_3_"  style="overflow:visible;"/>
			</clipPath>
			<polygon class="st3" points="155.6,394.2 155.6,414.9 183.9,404 193.4,399 194.2,379.6 			"/>
			<polygon class="st4" points="155.6,426 155.6,445.8 177,437.7 232.9,415.7 232.9,395.1 			"/>
			<g class="st5">
				<defs>
					<rect id="SVGID_5_" x="68" y="96.2" width="459.2" height="649.5"/>
				</defs>
				<clipPath id="SVGID_6_">
					<use xlink:href="#SVGID_5_"  style="overflow:visible;"/>
				</clipPath>
				<path class="st6" d="M156.4,414c9,13.2,27.1,0.2,37.8-3.4v-0.9l-11.2-5.2L156.4,414z"/>
				<path class="st7" d="M230.9,416l0.6,0.3L230.9,416z"/>
				<path class="st8" d="M224.9,418.6l0.6,0.3L224.9,418.6z"/>
				<path class="st9" d="M196,431.2c14.6,6.9,22.1,1.1,36.1-4.3C221.4,418.1,206.1,423.5,196,431.2"/>
				<path class="st10" d="M157.3,478.5c18.9-3.4,38.1-15.7,55.9-22.9c5.4-2.1,17-3.8,20.6-8.7c3-4,0.9-15.1,0.9-20
					c-9.7,0.5-20.9,7.4-29.4,11.8c-8.9,4.7-18.9,7.3-28.2,11.1c-4.9,2.1-15.9,4.8-18.9,9.3C155.3,463.3,157.3,473.5,157.3,478.5"/>
				<path class="st11" d="M183.1,435.5c6,9.5,16.9,5.5,24.9,1.7C198.3,430.7,193.2,432.7,183.1,435.5"/>
				<path class="st9" d="M156.4,446.7v0.9l13.8,4.7l24.1-9C181.1,432.4,169.6,441.6,156.4,446.7"/>
				<path class="st12" d="M227.5,450.4l0.6,0.3L227.5,450.4z"/>
				<path class="st9" d="M196,463c14.6,7.8,22.6,0.6,37-4.3C222.1,449.9,206.2,455.3,196,463"/>
				<polygon class="st13" points="196,494.8 234.6,479.3 234.6,457.8 206.1,469.9 196.8,475.3 				"/>
				<path class="st14" d="M195.7,463.3l0.6,0.3L195.7,463.3z"/>
				<path class="st15" d="M191.4,465l0.6,0.3L191.4,465z"/>
				<g class="st16">
					<g>
						<defs>
							<rect id="SVGID_7_" x="254.5" y="402.3" width="157.4" height="35.6"/>
						</defs>
						<clipPath id="SVGID_8_">
							<use xlink:href="#SVGID_7_"  style="overflow:visible;"/>
						</clipPath>
						<path class="st17" d="M285.9,418.7c0,0.2,0,0.3-0.1,0.5c-0.2,0.4-0.4,0.6-0.8,0.6c-0.3,0-0.6,0-0.9-0.1
							c-1.1-0.3-1.8-0.5-2.1-0.5c-0.3,0-0.8-0.1-1.5-0.1c-0.8,0-1.4-0.1-2-0.1c0.4,0.5,0.6,1,0.6,1.4c0,0.2,0,0.4-0.1,0.8
							c0,0.3-0.1,0.6-0.1,0.8c0,1.1-0.2,2.2-0.6,3c-0.4,0.9-0.8,1.3-1,1.3c-0.3,0-0.6-0.6-0.8-1.9c-0.1-0.5-0.2-1.3-0.3-2.6
							c-0.1-1.3-0.2-2.1-0.3-2.6c-1.1,0-2.5,0.1-4.2,0.3c-1.7,0.2-3.1,0.4-4.2,0.6c-0.7,0.1-1.3,0.3-1.9,0.6c-0.6,0.2-1,0.4-1.2,0.4
							c-0.4,0-0.9-0.1-1.7-0.4c-0.6-0.2-1.1-0.4-1.4-0.5c-0.3-0.1-0.8-0.3-1.3-0.6c-0.6-0.3-0.9-0.6-0.9-0.9c0-0.3,0.4-0.4,1.3-0.5
							l7.3-0.3c1.1,0,2.9-0.1,5.7-0.3c2.7-0.2,4.7-0.3,5.8-0.3c0.8,0,1.5-0.1,2.1-0.2c0.6-0.1,1.2-0.3,1.9-0.5c0.2,0,0.6,0.1,1,0.2
							c0.4,0.1,0.8,0.4,1.2,0.8C285.7,417.8,285.9,418.2,285.9,418.7L285.9,418.7z M276.7,410.8c0.9,0,1.6,0.2,2.2,0.6
							c0.4,0.3,0.7,0.6,0.9,0.9c0.2,0.3,0.3,0.6,0.3,0.9c0,0.7-0.4,1.1-1.2,1.1c-0.4,0-0.8-0.1-1.3-0.4c-0.5-0.4-1-0.9-1.5-1.3
							c-0.6-0.4-1.5-0.7-2.5-1c-0.3,0.5-1,1.1-2.3,1.8c-1.2,0.7-2.3,1.1-3.1,1.3c-0.1,0-0.3,0-0.4,0c-0.7,0-1-0.2-1-0.5
							c0-0.3,0.3-0.6,0.9-0.9c1.2-0.6,2.1-1.2,2.9-1.9c0.7-0.6,1.1-1.3,1.1-1.9c0-0.1,0-0.2-0.1-0.4c-0.2-0.6-0.4-1-0.6-1.2
							c-0.2-0.2-0.6-0.3-1-0.4c-0.2,0-0.6-0.1-1-0.3c-0.4-0.2-0.8-0.4-1.2-0.6c-0.5-0.3-0.8-0.6-0.8-0.9c0-0.3,0.3-0.4,0.8-0.4
							c0.3,0,0.6,0,1,0.1c0.5,0.1,1,0.2,1.4,0.2c0.7,0,1.4-0.1,2.1-0.4c1-0.4,1.8-0.7,2.4-1c0,0,0.4-0.1,1-0.4
							c0.3-0.1,0.6-0.2,0.9-0.2c0.3,0,0.5,0.1,0.8,0.2c0.2,0.1,0.5,0.3,0.9,0.6c0.3,0.2,0.5,0.4,0.7,0.8c0.2,0.3,0.3,0.6,0.3,1
							c0,0.3-0.1,0.5-0.3,0.7c-0.2,0.2-0.5,0.3-1,0.3c-0.1,0-0.3,0-0.8-0.1c-0.4-0.1-0.8-0.1-1.2-0.1c-0.3,0-0.7,0.1-1.2,0.2
							c-1,0.2-1.7,0.4-2.3,0.4c0.4,0.5,0.7,1,1.1,1.5c0.3,0.5,0.5,1,0.5,1.4c0,0.2,0,0.3,0,0.3c0.6-0.1,1.1-0.1,1.6-0.2
							C276,410.8,276.4,410.8,276.7,410.8L276.7,410.8z M279.3,430.7c0,1.4-0.5,2.6-1.4,3.6c-1,1.1-2,1.6-3.1,1.6
							c-1.4,0-2.7-0.5-3.9-1.5s-1.8-2-1.8-3c0-1.4,0.5-2.7,1.4-3.6c0.9-1,2-1.5,3.3-1.5c1.5,0,2.8,0.4,3.9,1.2
							C278.8,428.2,279.3,429.3,279.3,430.7z M277.1,430.9c0-0.8-0.3-1.4-0.9-1.9c-0.6-0.5-1.3-0.8-2.1-0.8c-0.8,0-1.5,0.2-2.1,0.7
							c-0.6,0.4-0.9,1-0.9,1.8c0,0.6,0.3,1.3,1,1.9s1.4,1,2.1,1c0.9,0,1.6-0.2,2.1-0.7C276.8,432.4,277.1,431.7,277.1,430.9z
							 M320.2,428.1c0,0.2,0,0.3-0.1,0.5c-0.2,0.5-0.6,0.8-1.1,0.8c-0.4,0-0.9-0.1-1.6-0.3c-1.6-0.5-2.7-0.7-3.3-0.7
							c-1.1,0-3,0.1-5.6,0.4c-2.7,0.3-5,0.6-7.1,1c-0.6,0.1-1.1,0.3-1.7,0.5c-0.6,0.2-1,0.4-1.2,0.4c-0.4,0-0.9-0.1-1.6-0.4
							c-0.7-0.3-1.4-0.7-2.3-1.3c-0.8-0.6-1.2-0.9-1.2-1.2c0-0.2,0.4-0.3,1.2-0.3c0.4,0,2.1-0.1,5.1-0.2c3-0.1,5.4-0.2,7-0.2
							c0-0.1-0.1-0.5-0.2-1.1c-0.1-0.6-0.1-1.1-0.2-1.4c-0.1-0.3-0.1-0.7-0.2-1c-0.1-0.6-0.4-1.1-0.7-1.5c-0.3-0.4-0.4-0.8-0.4-1
							c0-0.3,0.2-0.4,0.6-0.4c0.4,0,0.8,0.1,1.4,0.4c1,0.5,1.7,0.9,1.9,1.4c0.2,0.3,0.2,1,0.2,2v2.4c1.9,0,3.4-0.1,4.5-0.3
							c0.9-0.3,1.8-0.6,2.8-0.8c0.4,0,1,0.2,1.9,0.6C319.6,426.7,320.2,427.3,320.2,428.1L320.2,428.1z M315.5,416
							c0.4,0.6,0.6,1.1,0.6,1.7c0,0.4-0.1,0.7-0.3,1c-0.2,0.3-0.5,0.4-0.9,0.4c-0.4,0-0.8-0.2-1.3-0.6c-0.9-0.7-1.8-1.3-2.7-1.6
							c-0.9-0.4-2.1-0.7-3.7-1.1c-0.1,0-1.1,0.6-3,1.8c-1.1,0.6-2.1,1.1-3,1.4c-0.2,0.1-0.4,0.1-0.7,0.1c-0.4,0-0.7-0.1-1-0.3
							c-0.3-0.2-0.4-0.4-0.4-0.7c0-0.3,0.2-0.6,0.7-1c0.6-0.3,1.1-0.7,1.7-1c0.8-0.5,1.5-1,2.2-1.5c0.4-0.3,0.6-0.5,0.7-0.7
							c0.1-0.2,0.2-0.4,0.2-0.7c0-0.3-0.1-0.6-0.2-1c-0.1-0.4-0.3-0.9-0.5-1.5c-0.2-0.6-0.3-1.1-0.5-1.7c-0.1-0.5-0.2-0.9-0.2-1
							c0,0,0.1-0.1,0.1-0.1c0.1,0,0.4,0.2,0.8,0.6c0.5,0.5,1,1.1,1.6,1.8c0.5,0.6,0.9,1.2,1.2,1.9c0.2,0.3,0.3,0.6,0.4,1
							c0.1,0.3,0.2,0.6,0.2,1c0,0.4-0.1,0.6-0.1,0.7c0.8-0.1,1.7-0.3,2.7-0.4c0.9-0.2,1.6-0.2,2-0.2c0.6,0,1.2,0.1,1.7,0.4
							C314.5,414.9,315,415.3,315.5,416z M341.1,415.5c0.2,0.5,0.3,1.1,0.4,1.6c0.1,0.6,0.2,1,0.2,1.5c0,0.7-0.1,1.3-0.3,1.8
							c-0.2,0.5-0.6,1-1.2,1.5c-0.9,0.8-2.1,1.6-3.5,2.2c-1,0.5-2.1,0.9-3.4,1.2c-0.6,0.2-1,0.2-1.4,0.2c-0.6,0-0.9-0.2-0.9-0.5
							c0-0.4,0.5-0.9,1.6-1.5c0.9-0.4,1.9-1,3.2-1.9c1.2-0.9,2.3-1.7,3.1-2.5c0.4-0.4,0.6-0.9,0.6-1.5c0-0.5-0.1-0.9-0.4-1.2
							c-0.3-0.4-0.7-0.6-1.3-0.7c-2-0.3-3.2-0.4-3.6-0.5c-1.5-0.3-2.7-0.7-3.6-1.3c-0.7-0.4-1.1-0.7-1.1-1.1c0-0.3,0.3-0.6,1-0.7
							c0.7-0.1,1.6-0.3,2.8-0.5c1.2-0.2,2-0.3,2.3-0.3c1.5,0,2.7,0.3,3.6,1C340,413.2,340.7,414.2,341.1,415.5z M350.3,411.2
							c0,1.5-0.1,4.3-0.3,8.5c-0.1,2.3-0.2,4.2-0.2,5.6c0,1.9-0.2,3.8-0.7,5.7c-0.6,2.3-1.4,3.9-2.4,4.7c0.1-0.7,0.2-1.3,0.3-1.9
							c0-0.6,0.1-1.2,0.1-1.9c0-0.9,0-1.5,0-2c-0.1-2.3-0.2-3.5-0.2-3.8c0-2.1,0-4.9-0.1-8.3c-0.1-3.4-0.1-5.6-0.1-6.6
							c0-1.3-0.1-2.3-0.4-3c-0.3-0.7-0.9-1.5-1.8-2.4c-0.7-0.7-1.1-1.1-1.1-1.3c0-0.1,0.1-0.2,0.3-0.2c0.2,0,0.5,0,0.8,0.1
							c0.3,0.1,0.6,0.1,0.8,0.2c1.7,0.4,3,1.2,3.8,2.2C349.9,407.8,350.3,409.3,350.3,411.2z M383.1,405.4c1.1,1.1,1.6,2.5,1.6,4.3
							c0,1.9-0.1,3.9-0.2,5.8c-0.1,1.9-0.3,3.7-0.6,5.3c-0.1,0.9-0.3,1.6-0.6,2.1c-0.3,0.5-0.6,1-1,1.5c-0.3-1.3-0.5-2.3-0.6-3.1
							c-0.2-1.4-0.3-2.7-0.3-4.1c-0.1,0-0.3,0-0.7,0.1c-0.3,0.1-0.6,0.1-0.9,0.1c-0.3,0-0.5,0-0.6-0.1c-0.1,0-0.3-0.1-0.6-0.2
							c-0.3-0.1-0.6-0.3-0.9-0.5c-0.3-0.2-0.7-0.5-1.1-0.9c-0.2,1.4-0.7,2.7-1.6,3.7c-0.9,1-2,1.5-3.2,1.4c-1.6-0.1-2.9-0.7-4-1.7
							c-1.2-1.1-1.8-2.4-1.8-4c0-1.3,0.6-2.4,1.7-3.4c1.1-1,2.3-1.5,3.5-1.5c1.5,0,2.7,0.5,3.8,1.4c1.1,0.9,1.6,2.1,1.6,3.5
							c1.3,0,2.2,0,2.9-0.1c0.7-0.1,1.3-0.3,1.7-0.7c0-1,0-1.9,0-2.8c0-0.9,0-1.7-0.1-2.6c0-1.1-0.2-2-0.6-2.5c-0.5-0.6-1-1-1.3-1.4
							c-0.8-0.9-1.1-1.4-1.1-1.6c0-0.1,0.1-0.2,0.3-0.2c0.3,0,1,0.2,2.1,0.5C381.5,404.1,382.4,404.6,383.1,405.4L383.1,405.4z
							 M374.1,415c0-0.5-0.1-0.9-0.4-1.3c-0.3-0.3-0.7-0.6-1.3-0.8c-0.2-0.1-0.5-0.2-0.9-0.2c-0.7,0-1.4,0.3-2.1,0.8
							c-0.7,0.5-1.1,1-1.1,1.5c0,0.7,0.4,1.5,1.2,2.2c0.8,0.7,1.7,1.1,2.6,1.1c0.6,0,1.1-0.3,1.4-1C373.9,416.8,374.1,416,374.1,415
							z M384.1,435.2c0,0.5-0.3,0.8-0.8,0.9c-0.6,0.1-1.3,0.2-2.2,0.2c-0.7,0-1.7-0.1-2.8-0.3s-1.8-0.5-2-0.8
							c-0.1,0.4-0.1,0.7-0.2,1c-0.1,0.2-0.2,0.3-0.4,0.3c-0.3,0-0.7-0.6-1.1-1.7c-0.3-1.9-0.6-3.4-0.9-4.5c-0.2-1.2-0.6-2-0.9-2.4
							c-0.4-0.4-0.6-0.8-0.6-1c0-0.2,0.2-0.3,0.5-0.3c0.2,0,0.4,0,0.7,0.1c0.6,0.2,1.2,0.5,1.8,0.9c0.6,0.4,0.9,0.8,1,1.2
							c0.2,0,0.7-0.3,1.6-0.6c0.6-0.3,1.1-0.4,1.5-0.4c0.6,0,1.1,0.2,1.7,0.6V428c0-0.1,0-0.2,0-0.3c0-0.2-0.1-0.3-0.1-0.3
							c-0.1-0.4-0.2-0.8-0.4-1.2c-0.2-0.4-0.4-0.7-0.7-1.1c-0.3-0.4-0.4-0.7-0.4-0.9c0-0.3,0.2-0.4,0.6-0.4c0.2,0,0.3,0,0.6,0.1
							c2.2,1,3.4,2.4,3.4,4.3c0,1,0,2-0.1,3c-0.1,1-0.2,2-0.3,2.8c0.1,0.1,0.3,0.2,0.5,0.3C384,434.5,384.1,434.8,384.1,435.2z
							 M377.7,434.4c1.4,0,2.5-0.1,3.4-0.4c0-0.6,0-1.1,0-1.4c-0.1-1.7-0.2-2.8-0.2-3c-0.2,0.2-0.6,0.4-1,0.6
							c-0.5,0.1-1.3,0.2-2.3,0.2h-1.3v4c0.3,0,0.6,0,0.8,0.1C377.3,434.4,377.5,434.4,377.7,434.4L377.7,434.4z"/>
						<path class="st18" d="M276.3,432.9c-0.5,0.5-1.2,0.7-2.1,0.7c-0.8,0-1.5-0.3-2.1-1c-0.7-0.7-1-1.3-1-1.9
							c0-0.8,0.3-1.4,0.9-1.8c0.6-0.4,1.3-0.7,2.1-0.7s1.5,0.3,2.1,0.8c0.6,0.5,0.9,1.1,0.9,1.9
							C277.1,431.7,276.8,432.4,276.3,432.9z M277.7,427.4c-1.1-0.8-2.3-1.2-3.9-1.2c-1.3,0-2.4,0.5-3.3,1.5c-0.9,1-1.4,2.2-1.4,3.6
							c0,1,0.6,2,1.8,3c1.2,1,2.5,1.5,3.9,1.5c1.1,0,2.1-0.5,3.1-1.6c1-1.1,1.4-2.3,1.4-3.6C279.3,429.3,278.8,428.2,277.7,427.4z
							 M285.9,418.7c0-0.5-0.2-0.9-0.6-1.3c-0.4-0.4-0.8-0.6-1.2-0.8c-0.4-0.1-0.8-0.2-1-0.2c-0.6,0.2-1.3,0.3-1.9,0.5
							c-0.6,0.1-1.3,0.2-2.1,0.2c-1.1,0-3.1,0.1-5.8,0.3c-2.7,0.2-4.6,0.3-5.7,0.3l-7.3,0.3c-0.8,0.1-1.3,0.2-1.3,0.5
							c0,0.2,0.3,0.5,0.9,0.9c0.6,0.3,1,0.5,1.3,0.6c0.3,0.1,0.8,0.3,1.4,0.5c0.8,0.3,1.3,0.4,1.7,0.4c0.3,0,0.7-0.1,1.2-0.4
							c0.6-0.2,1.2-0.4,1.9-0.6c1.1-0.2,2.5-0.4,4.2-0.6c1.7-0.2,3.1-0.3,4.2-0.3c0.1,0.5,0.2,1.3,0.3,2.6c0.1,1.3,0.2,2.1,0.3,2.6
							c0.2,1.3,0.4,1.9,0.8,1.9c0.3,0,0.6-0.4,1-1.3c0.4-0.9,0.6-1.9,0.6-3c0-0.2,0.1-0.5,0.1-0.8c0-0.3,0.1-0.6,0.1-0.8
							c0-0.5-0.2-1-0.6-1.4c0.5,0,1.2,0,2,0.1c0.8,0,1.3,0.1,1.5,0.1c0.3,0,1,0.2,2.1,0.5c0.3,0.1,0.6,0.1,0.9,0.1
							c0.4,0,0.7-0.2,0.8-0.6C285.9,419,285.9,418.9,285.9,418.7z M276.7,410.8c-0.4,0-0.8,0-1.2,0.1c-0.5,0-1,0.1-1.6,0.2
							c0-0.1,0-0.2,0-0.3c0-0.4-0.2-0.9-0.5-1.4c-0.4-0.5-0.8-1-1.1-1.5c0.6-0.1,1.3-0.2,2.3-0.4c0.5-0.1,0.9-0.2,1.2-0.2
							c0.3,0,0.7,0,1.2,0.1c0.4,0.1,0.7,0.1,0.8,0.1c0.5,0,0.8-0.1,1-0.3c0.2-0.2,0.3-0.4,0.3-0.7c0-0.3-0.1-0.6-0.3-1
							c-0.2-0.3-0.4-0.6-0.7-0.8c-0.3-0.3-0.6-0.5-0.9-0.6c-0.2-0.1-0.5-0.2-0.8-0.2c-0.3,0-0.6,0.1-0.9,0.2c-0.6,0.2-0.9,0.4-1,0.4
							c-0.6,0.2-1.4,0.6-2.4,1c-0.7,0.3-1.4,0.4-2.1,0.4c-0.5,0-0.9-0.1-1.4-0.2c-0.4-0.1-0.7-0.1-1-0.1c-0.6,0-0.8,0.1-0.8,0.4
							c0,0.3,0.3,0.6,0.8,0.9c0.4,0.2,0.8,0.4,1.2,0.6c0.4,0.2,0.8,0.3,1,0.3c0.5,0.1,0.8,0.2,1,0.4c0.2,0.2,0.4,0.6,0.6,1.2
							c0,0.2,0.1,0.3,0.1,0.4c0,0.6-0.4,1.2-1.1,1.9c-0.7,0.6-1.7,1.3-2.9,1.9c-0.6,0.3-0.9,0.6-0.9,0.9c0,0.3,0.3,0.5,1,0.5
							c0.2,0,0.3,0,0.4,0c0.8-0.2,1.9-0.6,3.1-1.3c1.2-0.7,2-1.3,2.3-1.8c1.1,0.3,1.9,0.6,2.5,1c0.5,0.5,1,0.9,1.5,1.3
							c0.4,0.3,0.9,0.4,1.3,0.4c0.8,0,1.2-0.4,1.2-1.1c0-0.3-0.1-0.6-0.3-0.9c-0.2-0.3-0.5-0.6-0.9-0.9
							C278.4,411,277.6,410.8,276.7,410.8z"/>
						<path class="st18" d="M320.2,428.1c0-0.8-0.6-1.4-1.8-1.9c-0.8-0.4-1.5-0.6-1.9-0.6c-0.9,0.3-1.8,0.6-2.8,0.8
							c-1.1,0.2-2.6,0.3-4.5,0.3v-2.4c0-1-0.1-1.6-0.2-2c-0.3-0.5-0.9-1-1.9-1.4c-0.6-0.3-1.1-0.4-1.4-0.4c-0.4,0-0.6,0.1-0.6,0.4
							c0,0.3,0.1,0.6,0.4,1c0.3,0.4,0.5,0.9,0.7,1.5c0,0.3,0.1,0.7,0.2,1c0.1,0.3,0.1,0.8,0.2,1.4c0.1,0.6,0.1,1,0.2,1.1
							c-1.6,0-3.9,0.1-7,0.2c-3,0.1-4.8,0.2-5.1,0.2c-0.8,0-1.2,0.1-1.2,0.3s0.4,0.6,1.2,1.2c0.8,0.6,1.6,1,2.3,1.3
							c0.7,0.3,1.2,0.4,1.6,0.4c0.3,0,0.7-0.1,1.2-0.4c0.6-0.2,1.1-0.4,1.7-0.5c2-0.4,4.4-0.7,7.1-1c2.7-0.3,4.6-0.4,5.6-0.4
							c0.6,0,1.7,0.2,3.3,0.7c0.7,0.2,1.2,0.3,1.6,0.3c0.6,0,1-0.3,1.1-0.8C320.1,428.4,320.2,428.2,320.2,428.1z M314,414.7
							c-0.5-0.2-1-0.4-1.7-0.4c-0.4,0-1,0.1-2,0.2c-0.9,0.2-1.8,0.3-2.7,0.4c0-0.1,0-0.3,0.1-0.7c0-0.3-0.1-0.6-0.2-1
							c-0.1-0.3-0.3-0.6-0.4-1c-0.4-0.6-0.8-1.3-1.2-1.9c-0.6-0.7-1.1-1.3-1.6-1.8c-0.4-0.4-0.7-0.6-0.8-0.6c0,0-0.1,0.1-0.1,0.1
							c0,0.2,0.1,0.5,0.2,1c0.1,0.5,0.3,1.1,0.5,1.7c0.2,0.6,0.3,1.1,0.5,1.5c0.1,0.4,0.2,0.7,0.2,1c0,0.3-0.1,0.5-0.2,0.7
							c-0.1,0.2-0.4,0.4-0.7,0.7c-0.7,0.6-1.4,1.1-2.2,1.5c-0.6,0.3-1.1,0.7-1.7,1c-0.5,0.3-0.7,0.6-0.7,1c0,0.3,0.1,0.5,0.4,0.7
							c0.3,0.2,0.6,0.3,1,0.3c0.2,0,0.4,0,0.7-0.1c0.9-0.3,1.9-0.8,3-1.4c1.9-1.1,2.9-1.7,3-1.8c1.6,0.4,2.8,0.7,3.7,1.1
							c0.9,0.4,1.8,0.9,2.7,1.6c0.5,0.4,0.9,0.6,1.3,0.6c0.4,0,0.7-0.1,0.9-0.4c0.2-0.3,0.3-0.6,0.3-1c0-0.5-0.2-1.1-0.6-1.7
							C315,415.3,314.5,414.9,314,414.7z"/>
						<path class="st18" d="M339.1,412.5c-0.9-0.7-2.1-1-3.6-1c-0.3,0-1,0.1-2.3,0.3c-1.2,0.2-2.1,0.4-2.8,0.5c-0.7,0.1-1,0.3-1,0.7
							c0,0.3,0.4,0.7,1.1,1.1c0.9,0.6,2.2,1,3.6,1.3c0.4,0.1,1.6,0.2,3.6,0.5c0.6,0.1,1,0.3,1.3,0.7c0.3,0.4,0.4,0.8,0.4,1.2
							c0,0.6-0.2,1.1-0.6,1.5c-0.8,0.8-1.9,1.6-3.1,2.5c-1.3,0.9-2.3,1.5-3.2,1.9c-1.1,0.6-1.6,1.1-1.6,1.5c0,0.3,0.3,0.5,0.9,0.5
							c0.4,0,0.9-0.1,1.4-0.2c1.3-0.3,2.4-0.7,3.4-1.2c1.4-0.6,2.6-1.4,3.5-2.2c0.6-0.5,1-1,1.2-1.5c0.2-0.5,0.3-1.1,0.3-1.8
							c0-0.4-0.1-0.9-0.2-1.5c-0.1-0.6-0.3-1.1-0.4-1.6C340.7,414.2,340,413.2,339.1,412.5z M349.1,406.8c-0.8-1-2.1-1.8-3.8-2.2
							c-0.3,0-0.5-0.1-0.8-0.2c-0.3-0.1-0.6-0.1-0.8-0.1c-0.2,0-0.3,0.1-0.3,0.2c0,0.2,0.4,0.6,1.1,1.3c1,0.9,1.6,1.7,1.8,2.4
							c0.3,0.7,0.4,1.7,0.4,3c0,1,0,3.2,0.1,6.6c0.1,3.4,0.1,6.2,0.1,8.3c0,0.3,0.1,1.5,0.2,3.8c0,0.5,0,1.1,0,2
							c0,0.6,0,1.3-0.1,1.9c0,0.6-0.1,1.3-0.3,1.9c1-0.9,1.8-2.5,2.4-4.7c0.5-1.9,0.7-3.8,0.7-5.7c0-1.4,0.1-3.2,0.2-5.6
							c0.2-4.2,0.3-7,0.3-8.5C350.3,409.3,349.9,407.8,349.1,406.8z"/>
						<path class="st18" d="M377.7,434.4c-0.2,0-0.4,0-0.7,0c-0.2,0-0.5,0-0.8-0.1v-4h1.3c1.1,0,1.8-0.1,2.3-0.2
							c0.5-0.1,0.8-0.3,1-0.6c0,0.3,0.1,1.3,0.2,3c0,0.3,0,0.8,0,1.4C380.2,434.2,379.1,434.4,377.7,434.4z M373.6,417.4
							c-0.3,0.7-0.8,1-1.4,1c-1,0-1.8-0.4-2.6-1.1c-0.8-0.7-1.2-1.5-1.2-2.2c0-0.4,0.4-0.9,1.1-1.5c0.7-0.5,1.4-0.8,2.1-0.8
							c0.3,0,0.6,0.1,0.9,0.2c0.6,0.2,1,0.5,1.3,0.8c0.3,0.3,0.4,0.8,0.4,1.3C374.1,416,373.9,416.8,373.6,417.4z M383.8,434.3
							c-0.2-0.1-0.3-0.3-0.5-0.3c0.1-0.8,0.3-1.8,0.3-2.8c0.1-1,0.1-2,0.1-3c0-1.9-1.1-3.3-3.4-4.3c-0.2-0.1-0.4-0.1-0.5-0.1
							c-0.4,0-0.6,0.1-0.6,0.4c0,0.2,0.1,0.5,0.4,0.9c0.3,0.4,0.5,0.7,0.7,1.1c0.2,0.4,0.3,0.8,0.4,1.2c0,0,0,0.1,0.1,0.3v0.3v0.4
							c-0.6-0.4-1.1-0.6-1.7-0.6c-0.4,0-0.9,0.1-1.5,0.4c-0.8,0.4-1.4,0.6-1.6,0.6c-0.1-0.3-0.4-0.7-1-1.2c-0.6-0.4-1.2-0.8-1.8-0.9
							c-0.3-0.1-0.5-0.1-0.7-0.1c-0.3,0-0.5,0.1-0.5,0.3c0,0.3,0.2,0.6,0.6,1c0.4,0.4,0.7,1.2,0.9,2.4c0.2,1.2,0.5,2.7,0.9,4.5
							c0.5,1.1,0.8,1.7,1.1,1.7c0.2,0,0.3-0.1,0.4-0.3c0.1-0.2,0.2-0.6,0.2-1c0.2,0.3,0.8,0.6,2,0.8c1.1,0.2,2.1,0.3,2.8,0.3
							c0.9,0,1.7-0.1,2.2-0.2c0.6-0.1,0.8-0.5,0.8-0.9C384.1,434.8,384,434.5,383.8,434.3z M383.1,405.4c-0.7-0.7-1.6-1.3-2.7-1.6
							c-1.1-0.3-1.7-0.5-2.1-0.5c-0.2,0-0.3,0.1-0.3,0.2c0,0.2,0.4,0.7,1.1,1.6c0.4,0.4,0.8,0.9,1.3,1.4c0.4,0.5,0.6,1.4,0.6,2.5
							c0,0.8,0,1.7,0.1,2.6c0,0.9,0,1.8,0,2.8c-0.4,0.4-1,0.6-1.7,0.7c-0.7,0.1-1.7,0.1-2.9,0.1c0-1.4-0.5-2.6-1.6-3.5
							c-1.1-0.9-2.3-1.4-3.8-1.4c-1.2,0-2.4,0.5-3.5,1.5c-1.1,1-1.7,2.2-1.7,3.4c0,1.6,0.6,2.9,1.8,4c1.1,1,2.4,1.5,4,1.7
							c1.2,0.1,2.2-0.4,3.2-1.4c0.9-1,1.5-2.3,1.6-3.7c0.4,0.4,0.8,0.7,1.1,0.9c0.3,0.2,0.6,0.4,0.9,0.5c0.3,0.1,0.5,0.2,0.6,0.2
							c0.1,0,0.3,0.1,0.6,0.1c0.3,0,0.6,0,0.9-0.1c0.3-0.1,0.6-0.1,0.7-0.1c0,1.4,0.1,2.7,0.3,4.1c0.1,0.8,0.3,1.8,0.6,3.1
							c0.4-0.5,0.8-1,1-1.5c0.3-0.5,0.5-1.2,0.6-2.1c0.3-1.6,0.5-3.3,0.6-5.3c0.1-1.9,0.2-3.9,0.2-5.8
							C384.7,407.8,384.2,406.4,383.1,405.4z"/>
					</g>
				</g>
				<g class="st16">
					<g>
						<defs>
							<rect id="SVGID_9_" x="254.5" y="440.1" width="226.1" height="35.6"/>
						</defs>
						<clipPath id="SVGID_10_">
							<use xlink:href="#SVGID_9_"  style="overflow:visible;"/>
						</clipPath>
						<path class="st19" d="M272.3,453.4c0.2,0.5,0.3,1.1,0.4,1.6c0.1,0.6,0.2,1,0.2,1.5c0,0.7-0.1,1.3-0.3,1.8
							c-0.2,0.5-0.6,1-1.2,1.5c-0.9,0.8-2.1,1.6-3.5,2.2c-1,0.5-2.1,0.9-3.4,1.2c-0.6,0.2-1,0.2-1.4,0.2c-0.6,0-0.9-0.2-0.9-0.5
							c0-0.4,0.5-0.9,1.6-1.5c0.9-0.4,1.9-1,3.2-1.9c1.2-0.9,2.3-1.7,3.1-2.5c0.4-0.4,0.6-0.9,0.6-1.5c0-0.5-0.1-0.9-0.4-1.2
							c-0.3-0.4-0.7-0.6-1.3-0.7c-2-0.3-3.2-0.4-3.6-0.5c-1.5-0.3-2.7-0.7-3.6-1.3c-0.7-0.4-1.1-0.7-1.1-1.1c0-0.3,0.3-0.6,1-0.7
							c0.7-0.1,1.6-0.3,2.8-0.5c1.2-0.2,2-0.3,2.3-0.3c1.5,0,2.7,0.3,3.6,1C271.3,451.1,271.9,452.1,272.3,453.4z M281.6,449
							c0,1.5-0.1,4.3-0.3,8.5c-0.1,2.3-0.2,4.2-0.2,5.6c0,1.9-0.2,3.8-0.7,5.7c-0.6,2.3-1.4,3.9-2.4,4.7c0.1-0.7,0.2-1.3,0.3-1.9
							c0-0.6,0.1-1.2,0.1-1.9c0-0.9,0-1.5,0-2c-0.1-2.3-0.2-3.5-0.2-3.8c0-2.1,0-4.9-0.1-8.3c-0.1-3.4-0.1-5.6-0.1-6.6
							c0-1.3-0.1-2.3-0.4-3c-0.3-0.7-0.9-1.5-1.8-2.4c-0.7-0.7-1.1-1.1-1.1-1.3c0-0.1,0.1-0.2,0.3-0.2c0.2,0,0.5,0,0.8,0.1
							c0.3,0.1,0.6,0.1,0.8,0.2c1.7,0.4,3,1.2,3.8,2.2C281.1,445.7,281.6,447.1,281.6,449z M318.7,454.4c0.4,0.4,0.6,0.8,0.6,1.4
							c0,0.4-0.1,0.7-0.3,0.9c-0.2,0.3-0.5,0.4-0.8,0.4c-0.3,0-0.7-0.1-1-0.4c-0.4-0.3-0.9-0.6-1.5-0.7c-0.6-0.1-1.3-0.2-2-0.2
							c-0.3,0-0.6,0-1,0.1c-0.3,0-0.6,0.1-0.7,0.1c0.4,0.4,0.6,0.8,0.6,1.2c0,0.3,0,0.6-0.1,1c0,0.4-0.1,0.7-0.2,1
							c-0.1,0.3-0.3,0.6-0.5,1.1c-0.3,0.6-0.6,0.9-0.9,0.9c-0.1,0-0.2-0.1-0.3-0.2c-0.1-0.1-0.2-0.4-0.4-0.8
							c-0.1-0.4-0.3-1.2-0.4-2.2c-0.2-1-0.3-1.7-0.5-2c-1.7,0-3.3,0.2-4.7,0.5c-1.4,0.4-2.9,0.7-4.4,1.1c-0.4,0.1-0.9,0.2-1.5,0.4
							c-0.6,0.2-1.1,0.3-1.4,0.3c-0.4,0-0.8-0.1-1.2-0.3c-0.5-0.1-1.1-0.4-1.8-0.7c-0.7-0.3-1.2-0.6-1.4-0.8c-0.6-0.4-0.9-0.8-0.9-1
							c0-0.3,0.5-0.4,1.4-0.4c0.8,0,2.1-0.1,3.9-0.2c1.8-0.1,3.2-0.2,4.1-0.2l10.2-0.7c0.8,0,1.7-0.1,2.5-0.3
							c0.8-0.2,1.7-0.3,2.6-0.5c0.4,0,0.7,0.1,1,0.2C317.9,453.7,318.3,453.9,318.7,454.4z M310.9,446.7c1.1,0,1.9,0.3,2.7,0.9
							c0.4,0.3,0.7,0.6,0.9,1c0.2,0.4,0.3,0.8,0.3,1.1c0,0.7-0.3,1.1-1,1.1c-0.4,0-0.8-0.2-1.2-0.5c-0.7-0.5-1.5-1-2.2-1.3
							c-0.9-0.5-1.9-0.7-2.8-0.9c-0.3,0.2-1,0.6-2.1,1.3c-1.5,0.9-2.7,1.4-3.7,1.4c-0.1,0-0.2,0-0.3,0c-0.5,0-0.9-0.1-1.1-0.2
							c-0.3-0.1-0.4-0.3-0.4-0.5c0-0.4,0.5-0.8,1.6-1.2c0.5-0.2,1.1-0.6,1.7-1.3c0.9-1,1.5-1.5,1.5-1.6c0.3-0.3,0.5-0.5,0.5-0.8
							c0-0.2-0.1-0.4-0.3-0.8c-0.2-0.3-0.4-0.7-0.5-1c-0.2-0.3-0.3-0.8-0.5-1.3c-0.2-0.4-0.3-0.7-0.3-0.9c0-0.1,0.1-0.1,0.2-0.1
							c0.1,0,0.4,0.2,1,0.7c0.7,0.6,1.4,1.5,2.1,2.5c0.7,1.1,1,1.9,1,2.5c0,0.2,0,0.4-0.1,0.5c0.6-0.2,1.1-0.3,1.7-0.4
							C310,446.8,310.5,446.7,310.9,446.7L310.9,446.7z M312.7,466.8c0,0.1,0,0.3-0.1,0.5c-0.1,0.4-0.4,0.6-1,0.6
							c-0.4,0-0.7,0-0.9,0c-0.3,0-0.6,0-0.9,0c-0.3,0-0.6,0-0.8,0c-0.4,0-1,0.1-1.8,0.2c-0.8,0.1-1.3,0.3-1.5,0.5
							c-0.2,0.2-0.3,0.6-0.3,1.2c0,0.7,0.2,1.2,0.6,1.5c0.2,0.2,0.6,0.2,1.1,0.2c1,0,1.7,0,2-0.1c0.7-0.2,1.4-0.3,2.2-0.5
							c0.1,0,0.3,0,0.5,0c0.8,0,1.2,0.3,1.2,0.9c0,0.3-0.1,0.6-0.4,1.1c-0.3,0.6-0.9,1-1.6,1.3c-0.7,0.3-1.5,0.4-2.4,0.4
							c-1.4,0-2.5-0.3-3.3-0.9c-0.7-0.5-1.2-1.1-1.5-1.7c-0.3-0.6-0.5-1.3-0.5-2.1c0-0.4,0-0.7,0.1-1.1c-0.5-0.3-0.9-0.5-1.2-0.7
							c-0.3-0.2-0.4-0.4-0.4-0.6c0-0.4,0.7-0.6,2-0.6c0.6,0,1.4-0.1,2.3-0.3c1.3-0.3,2.7-0.6,4-0.9l-0.1-1.8c0-0.4-0.1-0.6-0.3-0.8
							c-0.2-0.1-0.4-0.2-0.7-0.2c-0.2,0-0.4,0-0.6,0.1c-0.2,0.1-0.7,0.2-1.5,0.4c-0.5,0.1-0.9,0.3-1.2,0.4c-0.3,0.1-0.5,0.2-0.7,0.3
							c-0.2,0.1-0.3,0.1-0.6,0.1c-0.1,0-0.4,0-0.7-0.1c-0.3-0.1-0.6-0.2-0.7-0.2c-0.2-0.1-0.4-0.2-0.6-0.3c-0.4-0.3-0.7-0.5-0.7-0.7
							c0-0.2,0.3-0.4,1-0.4c0.6,0,1.5-0.1,2.8-0.3c0.5-0.1,1.5-0.3,3-0.6c0.5-0.1,0.9-0.1,1.3-0.1c0.3,0,0.5,0,0.7,0.1
							c0.2,0.1,0.5,0.2,0.9,0.4c0.4,0.2,0.8,0.4,1,0.7c0.2,0.3,0.3,0.6,0.3,0.9c0,0.3-0.1,0.6-0.2,1.1c0,0.1-0.1,0.4-0.2,0.8
							c-0.1,0.4-0.2,0.7-0.3,0.9C312.5,466.1,312.7,466.5,312.7,466.8L312.7,466.8z M342.5,450.5c0,0.2-0.1,0.4-0.3,0.7
							c-0.2,0.3-0.4,0.4-0.8,0.4c-0.2,0-0.4,0-0.5,0c-0.6-0.1-1.1-0.1-1.4-0.1c-0.3,0-0.9,0.1-1.5,0.2c-0.7,0.1-1.4,0.3-2.1,0.6
							c-0.6,0.2-0.9,0.3-1.1,0.4s-0.3,0.1-0.6,0.1c-0.3,0-0.5,0-0.8-0.1c-0.3-0.1-0.7-0.3-1.3-0.6c-0.6-0.3-0.9-0.6-0.9-0.8
							s0.4-0.3,1.1-0.3c1,0,2-0.1,3.1-0.2c1.1-0.2,2-0.4,2.9-0.7c0.4-0.1,0.8-0.2,1.2-0.4c0.4-0.1,0.7-0.2,0.9-0.2
							c0.2,0,0.4,0,0.6,0.1c0.2,0.1,0.4,0.1,0.6,0.2C342.2,449.9,342.5,450.2,342.5,450.5L342.5,450.5z M341.2,446.7
							c0,0.4-0.2,0.7-0.6,1c-0.4,0.3-1.1,0.4-1.9,0.4c-0.6,0.1-1.3-0.1-2.3-0.6c-0.9-0.5-1.7-1-2.2-1.6c-0.9-0.9-1.3-1.4-1.3-1.6
							c0-0.1,0.1-0.1,0.4-0.1c0.3,0,0.7,0.2,1.3,0.4c0.6,0.2,1.2,0.4,1.8,0.5c0.7,0.1,1.4,0.2,2.1,0.2c0.6,0,1.2,0.1,1.8,0.4
							C340.9,445.8,341.2,446.2,341.2,446.7z M342.4,457.2c0,1.3-0.5,2.3-1.4,3.2c-0.8,0.8-1.7,1.1-2.7,1.1c-1.1,0-2.2-0.5-3.3-1.4
							c-1.1-1-1.6-2-1.6-3.2c0-0.8,0.6-1.7,1.7-2.5c1.1-0.8,2.2-1.3,3.2-1.3c1.3,0,2.3,0.4,3,1.1C342,454.9,342.4,456,342.4,457.2z
							 M340.1,458.5c0.2-0.4,0.3-0.8,0.3-1.4c-0.1-0.7-0.3-1.3-0.6-1.7c-0.4-0.5-0.9-0.8-1.6-0.8c-0.8,0-1.5,0.2-2.1,0.7
							c-0.6,0.4-0.9,1-0.9,1.6c0,0.6,0.3,1.1,0.9,1.7c0.6,0.5,1.3,0.8,2.1,0.8C339.2,459.3,339.8,459,340.1,458.5L340.1,458.5z
							 M349.5,467.6c0,1.3-0.2,2.5-0.5,3.6c-0.4,1.5-1,2.6-1.9,3.3c-0.1-0.6-0.2-1.8-0.4-3.5c-0.2-1.7-0.2-2.9-0.2-3.5
							c0-0.6,0-1-0.1-1.2c-0.1-0.2-0.3-0.3-0.7-0.3l-0.6,0.1c-0.4,0.1-0.9,0.2-1.6,0.5c-0.7,0.2-1.2,0.4-1.5,0.5
							c-0.4,0.1-0.8,0.2-1.2,0.3c-0.4,0.1-0.8,0.1-1,0.1c-0.3,0-0.6,0-0.9-0.1c-0.4-0.2-0.7-0.3-0.9-0.4c-1-0.5-1.4-0.9-1.4-1.1
							c0-0.3,0.5-0.4,1.5-0.4c0.6,0,1.3-0.1,2-0.2c1.6-0.3,2.7-0.4,3.3-0.4c1-0.1,1.9-0.2,2.9-0.4c0.4,0,0.7,0,0.9,0.1
							c0.2,0.1,0.5,0.2,0.8,0.4c0.6,0.3,0.9,0.7,1.1,1C349.4,466.2,349.5,466.8,349.5,467.6z M349,444.2c0.8,1,1.3,2.4,1.3,4.4
							c0,1.2-0.1,3.1-0.3,5.6c-0.2,2.5-0.3,4.2-0.3,4.9c-0.2,1.4-0.4,2.6-0.8,3.6c-0.4,1-0.8,1.5-1.3,1.6c0-0.5,0-1.2-0.1-1.9
							c-0.1-0.8-0.2-1.6-0.3-2.5c-0.3,0.2-0.6,0.3-1.1,0.3c-0.7,0-1.5-0.2-2.3-0.7c-0.8-0.5-1.3-0.8-1.3-1.1c0-0.2,0.3-0.3,0.9-0.3
							c0.3,0,0.4,0,0.6,0c0.5,0,1-0.1,1.5-0.2c0.5-0.1,1-0.3,1.6-0.5c0-0.3-0.1-1-0.1-2c0-1,0-2,0-3.2c-0.4,0-1.1,0.1-2,0.3
							c-0.9,0.2-1.6,0.4-1.9,0.4c-0.5,0.2-0.8,0.2-1.1,0.2c-0.1,0-0.2-0.1-0.2-0.2c0-0.1,0.3-0.5,0.9-1c0.4-0.5,0.9-0.8,1.3-1.2
							c0.8-0.6,1.8-0.9,3-1.2l0-2.5c0-1.1-0.2-1.9-0.6-2.5c-0.2-0.2-0.6-0.7-1.3-1.5c-0.7-0.8-1.1-1.3-1.1-1.5
							c0-0.1,0.1-0.1,0.4-0.1c0.3,0,0.7,0.2,1.4,0.5C347.3,442.8,348.4,443.5,349,444.2L349,444.2z M377.3,459.4
							c0,0.2,0.1,0.4,0.1,0.7c0,0.5-0.1,0.8-0.3,1.1c-0.2,0.3-0.4,0.4-0.7,0.4c-0.3,0-0.7-0.2-1-0.6c0,0-0.6-0.7-1.5-1.9
							c-0.6-0.7-1.3-1.4-2-2c-1.5,1.5-2.6,2.6-3.4,3.3c-1.1,0.8-2,1.3-2.9,1.6c-0.2,0.1-0.4,0.1-0.6,0.1c-0.2,0-0.4,0-0.5,0
							c-0.4,0-0.7-0.1-0.7-0.3c0-0.3,0.4-0.7,1.1-1.1c1.1-0.7,2.4-1.9,3.8-3.5c1.3-1.5,2.3-2.9,3.1-4.2c0.3-0.5,0.4-1,0.4-1.4
							c0-0.4-0.1-0.9-0.4-1.4c-0.1-0.3-0.5-0.9-1-1.9c-0.2-0.4-0.3-0.7-0.3-0.9c0-0.1,0.1-0.1,0.3-0.1c0.2,0.1,0.5,0.2,0.8,0.4
							c1.2,0.6,2.2,1.7,3,3.2c0.3,0.5,0.5,0.9,0.5,1.3c0,0.4-0.2,0.9-0.7,1.6c-0.4,0.6-0.8,1.1-0.9,1.4c-0.3,0.5-0.6,0.9-1,1.3
							c1.9,0.4,3.2,0.8,3.8,1.2C376.8,458.3,377.1,458.8,377.3,459.4z M383.7,470.6c0,0.2-0.1,0.4-0.2,0.8c-0.3,0.7-0.7,1.2-1.3,1.6
							c-0.6,0.4-1.5,0.6-2.6,0.6c-1.8,0-3.2-0.4-4.4-1.2c-0.9-0.6-1.4-1.2-1.5-2c-0.2-0.7-0.5-1.3-0.8-1.9c-0.2-0.4-0.5-0.8-0.9-1.2
							c-0.5-0.6-0.8-1-0.8-1.2c0-0.2,0.2-0.3,0.6-0.3c0.2,0,0.5,0,0.9,0.1c1.1,0.2,1.8,0.5,2.1,1c0.4,0.4,0.6,1.1,0.6,1.9v0.7
							c0,0.5,0.1,0.7,0.4,0.8c0.3,0.1,0.7,0.1,1.2,0.1c0.5,0,1.5-0.1,2.9-0.4c0.8-0.2,1.3-0.3,1.5-0.3c0.2,0,0.4,0,0.5,0
							c0.1,0,0.2,0,0.3,0C383.2,469.8,383.7,470.1,383.7,470.6L383.7,470.6z M383.3,444.8c0.9,1.1,1.4,2.5,1.4,4.1
							c0,2.1-0.1,4.2-0.2,6.3c-0.1,2.1-0.3,4.3-0.5,6.4c-0.1,1.4-0.3,2.5-0.6,3.4c-0.3,1.1-0.8,1.9-1.4,2.5c0-0.6,0-1.3-0.1-2.1
							c-0.3-2.3-0.4-3.8-0.4-4.6c0-1.1,0-2.7-0.1-4.7c-0.2-4.7-0.2-7.4-0.2-8.3c0-1-0.2-1.9-0.5-2.5c-0.5-0.6-0.9-1.1-1.1-1.5
							c-0.6-0.8-0.9-1.3-0.9-1.5c0-0.1,0.1-0.2,0.2-0.2c0.3,0,0.7,0.2,1.5,0.5C381.6,443.3,382.6,444,383.3,444.8L383.3,444.8z
							 M408.3,459.8c0,0.4-0.1,0.8-0.3,1.2c-0.2,0.4-0.4,0.6-0.6,0.6c-0.1,0-0.3-0.1-0.4-0.3c-0.1-0.2-0.3-0.5-0.4-0.9
							c-0.2-0.6-0.4-1.3-0.5-2.1c-0.1-0.7-0.2-1.5-0.3-2.3c0-0.6-0.3-1.2-0.9-1.6c-0.9,0.8-1.8,1.5-2.5,2c-1,0.7-1.9,1.2-2.9,1.5
							c-0.6,0.2-1,0.3-1.3,0.3c-0.4,0-0.6-0.1-0.6-0.3c0-0.3,0.4-0.7,1.2-1.2c1.2-0.8,2.3-1.8,3.4-3.1c0.9-1.1,1.7-2.2,2.4-3.5
							c0.1-0.2,0.2-0.4,0.2-0.7c0-0.3-0.1-0.6-0.3-0.9c-0.1-0.1-0.3-0.4-0.6-0.9c-0.4-0.6-0.6-1.1-0.6-1.3c0-0.2,0.1-0.2,0.3-0.2
							c0.3,0,0.8,0.2,1.4,0.7c0.4,0.3,0.8,0.6,1.3,1.1c0.5,0.5,0.9,0.9,1.1,1.2c0.1,0.2,0.2,0.4,0.3,0.6c0.1,0.2,0.1,0.5,0.1,0.7
							c0,0.4-0.1,0.7-0.4,1c-0.2,0.3-0.6,0.7-1,1.2c-0.3,0.3-0.6,0.6-0.9,0.8c0.5,0.3,0.8,0.5,1.2,0.7c0.5,0.3,0.9,0.7,1.2,1.3
							c0.2,0.3,0.3,0.8,0.3,1.4c0,0.3,0,0.8-0.1,1.5C408.3,459,408.3,459.5,408.3,459.8z M419.4,470.9c0,0.3-0.2,0.7-0.6,1.1
							c-0.4,0.6-1.1,1-2.1,1.2c-0.7,0.2-1.6,0.3-2.5,0.3c-0.6,0-1.1-0.1-1.5-0.2c-0.4-0.1-0.9-0.4-1.4-0.8c-0.5-0.3-1-0.7-1.4-1.1
							c-0.6-0.7-1-1.3-1.2-2c-0.2-0.7-0.3-1.1-0.4-1.2c-0.2-0.5-0.5-0.9-0.9-1.2c-0.6-0.5-0.8-0.9-0.8-1.2c0-0.3,0.3-0.5,0.8-0.5
							c0.1,0,0.3,0,0.5,0.1c0.9,0.2,1.5,0.5,2,0.9c0.5,0.4,0.7,1,0.7,1.7c0,0.2,0,0.5-0.1,0.7c-0.1,0.2-0.1,0.4-0.1,0.6
							c0,0.3,0.1,0.5,0.4,0.7c0.3,0.2,0.9,0.4,1.7,0.5c0.3,0,0.5,0.1,0.7,0.1c0.3,0,1.1-0.1,2.2-0.3c0.6-0.1,1-0.2,1.5-0.2
							c0.4-0.1,0.8-0.1,1.1-0.1C418.9,470,419.4,470.3,419.4,470.9L419.4,470.9z M413.6,447.5c0.7,0.8,1,1.7,1,2.8l-0.1,6.8
							c0,1.2-0.1,2.2-0.3,3.2c-0.3,1.4-0.9,2.4-1.5,2.8c-0.3-1.1-0.5-2.2-0.6-3.3c-0.1-1.1-0.2-2-0.2-2.9v-1.6
							c-0.2,0.1-0.4,0.1-0.7,0.1c-0.7,0-1.3-0.4-1.9-1.1c-0.3-0.3-0.5-0.6-0.5-0.7c0-0.2,0.2-0.2,0.6-0.2c0.1,0,0.3,0.1,0.6,0.1
							c0.3,0,0.6-0.1,0.9-0.2c0.1,0,0.3-0.2,0.8-0.4v-0.4c0-0.6,0-1.1,0-1.7c-0.1-0.5-0.1-0.8-0.1-1c0-0.6,0-1.1-0.1-1.3
							c-0.1-0.3-0.3-0.6-0.6-1c-0.6-0.8-0.9-1.3-0.9-1.6c0-0.2,0.1-0.2,0.3-0.2c0.3,0,0.9,0.2,1.8,0.6
							C412.6,446.5,413.1,446.9,413.6,447.5L413.6,447.5z M420.6,447.3l-0.3,11c0,1.8-0.2,3.5-0.6,5.1c-0.5,2-1.2,3.3-2,4.1
							c-0.1-0.9-0.2-2.2-0.3-4c-0.1-1.8-0.2-3-0.2-3.7l0-11.3c0-1.3-0.1-2.2-0.3-2.8c-0.2-0.6-0.7-1.3-1.5-2.2c-0.7-0.7-1-1.2-1-1.5
							c0-0.1,0.1-0.2,0.4-0.2c0.4,0,0.9,0.1,1.6,0.3c1.4,0.5,2.4,1.2,3.2,2C420.2,445.1,420.6,446.1,420.6,447.3z M445.1,450.6
							c-0.1,0.8-0.6,1.2-1.5,1.2c-0.3,0-0.4,0-0.6,0c-0.1,0-0.3,0-0.6,0c-0.6,0-1.1,0.1-1.5,0.3c-0.5,0.2-0.9,0.4-1.4,0.6
							c-0.1,0.4-0.2,0.9-0.3,1.4c-0.1,0.5-0.2,1.1-0.2,1.7c0.7,0,1.4-0.1,2.3-0.3c0.9-0.2,1.4-0.3,1.7-0.3c0.3,0,0.6,0.1,0.9,0.2
							c0.3,0.1,0.5,0.2,0.7,0.4c0.2,0.1,0.2,0.3,0.2,0.6c0,0.3-0.1,0.5-0.4,0.8c-0.3,0.3-0.6,0.5-1,0.7c-0.4,0.2-0.8,0.3-1.2,0.3
							c-0.5,0-1-0.1-1.5-0.3c-0.8-0.3-1.4-0.4-1.8-0.5c0,0.2-0.1,0.6-0.2,1.1c-0.1,0.5-0.1,0.9-0.1,1.1c0,0.8,0.1,1.3,0.3,1.5
							c0.2,0.3,0.5,0.4,0.9,0.4c0.6,0,1.4-0.1,2.3-0.3c1-0.2,1.6-0.3,1.8-0.4c0.5-0.1,0.9,0,1.2,0.2c0.3,0.2,0.4,0.4,0.4,0.8
							c0,0.4-0.2,0.7-0.5,1.1c-0.5,0.5-1.1,0.9-1.7,1.1c-0.6,0.2-1.4,0.3-2.4,0.3c-1.1,0-2-0.3-2.9-0.9c-1-0.7-1.4-1.6-1.4-2.7
							c0-0.8,0.1-2,0.2-3.6c0.1-1.6,0.3-2.9,0.4-3.9c-0.7-0.1-1.2-0.2-1.7-0.3c-0.4-0.1-1-0.4-1.6-0.7c-0.8-0.4-1.1-0.8-1.1-1
							c0-0.2,0.3-0.3,0.8-0.3c0.2,0,0.3,0,0.4,0h0.6h0.6c1.1,0,1.8,0,2.3-0.1c0.5-0.1,0.9-0.2,1.4-0.4c0.6-0.3,1.3-0.7,2-1.1
							c0.3-0.1,0.7-0.2,1.2-0.2c0.1,0,0.2,0,0.4,0c0.2,0,0.4,0.1,0.5,0.1c0.7,0.1,1.2,0.3,1.7,0.8
							C445,449.8,445.2,450.2,445.1,450.6z M452.3,444.8c0.8,0.9,1.2,2.2,1.2,3.7c0,1.9,0,3.9-0.1,5.7c-0.1,1.9-0.1,3.9-0.2,6.1
							c-0.1,2.2-0.1,3.9-0.1,5.1c0,1.6-0.2,3-0.7,4.5c-0.5,1.4-1,2.5-1.7,3.2c0-0.3-0.1-1.3-0.2-3c-0.1-1.6-0.2-2.9-0.2-3.7
							c0-0.8,0-2.4-0.1-4.5c-0.1-2.2-0.1-3.7-0.1-4.5c-0.4,0.1-0.8,0.2-1.2,0.4s-0.7,0.2-0.8,0.2c-0.4,0-1-0.3-1.9-0.9
							c-0.7-0.5-1.1-0.8-1.1-1c0-0.2,0.4-0.4,1.2-0.5c0.8-0.1,1.5-0.3,2.1-0.4c0.6-0.2,1.1-0.3,1.6-0.5c0-0.7,0-1.8-0.1-3.2
							c-0.1-1.4-0.1-2.4-0.1-3c0-1-0.1-1.8-0.4-2.5c-0.3-0.7-0.8-1.3-1.4-2c-0.8-0.8-1.1-1.3-1.1-1.6c0-0.2,0.1-0.2,0.4-0.2
							c0.4,0,1,0.2,2,0.6C450.6,443.2,451.6,444,452.3,444.8L452.3,444.8z"/>
						<path class="st20" d="M270.3,450.4c-0.9-0.7-2.1-1-3.6-1c-0.3,0-1,0.1-2.3,0.3c-1.2,0.2-2.1,0.4-2.8,0.5c-0.7,0.1-1,0.3-1,0.7
							c0,0.3,0.4,0.7,1.1,1.1c0.9,0.6,2.2,1,3.6,1.3c0.4,0.1,1.6,0.2,3.6,0.5c0.6,0.1,1,0.3,1.3,0.7c0.3,0.4,0.4,0.8,0.4,1.2
							c0,0.6-0.2,1.1-0.6,1.5c-0.8,0.8-1.9,1.6-3.1,2.5c-1.3,0.9-2.3,1.5-3.2,1.9c-1.1,0.6-1.6,1.1-1.6,1.5c0,0.3,0.3,0.5,0.9,0.5
							c0.4,0,0.9-0.1,1.4-0.2c1.3-0.3,2.4-0.7,3.4-1.2c1.4-0.6,2.6-1.4,3.5-2.2c0.6-0.5,1-1,1.2-1.5c0.2-0.5,0.3-1.1,0.3-1.8
							c0-0.4-0.1-0.9-0.2-1.5c-0.1-0.6-0.3-1.1-0.4-1.6C271.9,452.1,271.3,451.1,270.3,450.4z M280.3,444.7c-0.8-1-2.1-1.8-3.8-2.2
							c-0.3,0-0.5-0.1-0.8-0.2c-0.3-0.1-0.6-0.1-0.8-0.1c-0.2,0-0.3,0.1-0.3,0.2c0,0.2,0.4,0.6,1.1,1.3c1,0.9,1.6,1.7,1.8,2.4
							c0.3,0.7,0.4,1.7,0.4,3c0,1,0,3.2,0.1,6.6c0.1,3.4,0.1,6.2,0.1,8.3c0,0.3,0.1,1.5,0.2,3.8c0,0.5,0,1.1,0,2
							c0,0.6,0,1.3-0.1,1.9c0,0.6-0.1,1.3-0.3,1.9c1-0.9,1.8-2.5,2.4-4.7c0.5-1.9,0.7-3.8,0.7-5.7c0-1.4,0.1-3.2,0.2-5.6
							c0.2-4.2,0.3-7,0.3-8.5C281.6,447.1,281.1,445.7,280.3,444.7z"/>
						<path class="st20" d="M312.7,466.8c0-0.4-0.3-0.8-0.8-1.1c0.1-0.2,0.2-0.4,0.3-0.9c0.1-0.4,0.2-0.7,0.2-0.8
							c0.2-0.4,0.2-0.8,0.2-1.1c0-0.3-0.1-0.6-0.3-0.9s-0.5-0.5-1-0.7c-0.4-0.2-0.8-0.3-0.9-0.4c-0.2-0.1-0.4-0.1-0.7-0.1
							c-0.4,0-0.8,0-1.3,0.1c-1.5,0.3-2.5,0.5-3,0.6c-1.3,0.2-2.2,0.3-2.8,0.3c-0.7,0.1-1,0.2-1,0.4c0,0.2,0.2,0.4,0.7,0.7
							c0.3,0.2,0.5,0.3,0.6,0.3c0.2,0.1,0.4,0.2,0.7,0.2c0.3,0.1,0.6,0.1,0.7,0.1c0.2,0,0.4,0,0.6-0.1c0.2-0.1,0.4-0.1,0.7-0.3
							c0.3-0.1,0.7-0.2,1.2-0.4c0.8-0.2,1.4-0.4,1.5-0.4c0.2-0.1,0.4-0.1,0.6-0.1c0.3,0,0.5,0.1,0.7,0.2c0.2,0.1,0.3,0.4,0.3,0.8
							l0.1,1.8c-1.4,0.3-2.7,0.6-4,0.9c-1,0.2-1.7,0.3-2.3,0.3c-1.3,0-2,0.2-2,0.6c0,0.2,0.1,0.4,0.4,0.6c0.3,0.2,0.7,0.5,1.2,0.7
							c-0.1,0.4-0.1,0.8-0.1,1.1c0,0.8,0.2,1.5,0.5,2.1c0.3,0.6,0.8,1.2,1.5,1.7c0.8,0.6,2,0.9,3.3,0.9c0.9,0,1.7-0.1,2.4-0.4
							c0.7-0.3,1.2-0.7,1.6-1.3c0.3-0.5,0.4-0.8,0.4-1.1c0-0.6-0.4-0.9-1.2-0.9c-0.2,0-0.4,0-0.5,0c-0.7,0.2-1.5,0.3-2.2,0.5
							c-0.4,0.1-1,0.1-2,0.1c-0.5,0-0.8-0.1-1.1-0.2c-0.4-0.3-0.6-0.7-0.6-1.5c0-0.6,0.1-1,0.3-1.2c0.2-0.2,0.7-0.3,1.5-0.5
							c0.8-0.1,1.4-0.2,1.8-0.2c0.2,0,0.4,0,0.8,0c0.3,0,0.6,0,0.9,0c0.2,0,0.5,0,0.9,0c0.6,0,0.9-0.2,1-0.6
							C312.7,467.1,312.7,466.9,312.7,466.8z M317.6,453.5c-0.3-0.1-0.7-0.2-1-0.2c-0.9,0.2-1.8,0.4-2.6,0.5
							c-0.8,0.2-1.7,0.3-2.5,0.3l-10.2,0.7c-0.9,0-2.3,0.1-4.1,0.2c-1.8,0.1-3.1,0.2-3.9,0.2c-0.9,0-1.4,0.1-1.4,0.4
							c0,0.2,0.3,0.6,0.9,1c0.2,0.2,0.6,0.4,1.4,0.8c0.7,0.3,1.3,0.6,1.8,0.7c0.4,0.2,0.8,0.3,1.2,0.3c0.3,0,0.8-0.1,1.4-0.3
							c0.6-0.2,1.1-0.4,1.5-0.4c1.5-0.4,2.9-0.7,4.4-1.1c1.4-0.4,3-0.5,4.7-0.5c0.2,0.3,0.4,0.9,0.5,2c0.2,1,0.3,1.8,0.4,2.2
							c0.1,0.4,0.2,0.7,0.4,0.8c0.1,0.1,0.2,0.2,0.3,0.2c0.3,0,0.6-0.3,0.9-0.9c0.3-0.4,0.5-0.8,0.5-1.1c0.1-0.3,0.1-0.6,0.2-1
							c0-0.4,0.1-0.7,0.1-1c0-0.5-0.2-0.9-0.6-1.2c0.1,0,0.3,0,0.7-0.1c0.3,0,0.7-0.1,1-0.1c0.7,0,1.4,0.1,2,0.2
							c0.6,0.1,1.1,0.4,1.5,0.7c0.3,0.3,0.7,0.4,1,0.4c0.3,0,0.6-0.1,0.8-0.4c0.2-0.3,0.3-0.6,0.3-0.9c0-0.5-0.2-1-0.6-1.4
							C318.3,453.9,317.9,453.7,317.6,453.5z M310.9,446.7c-0.4,0-0.9,0.1-1.4,0.2c-0.6,0.1-1.1,0.3-1.7,0.4
							c0.1-0.1,0.1-0.3,0.1-0.5c0-0.6-0.3-1.5-1-2.5c-0.7-1.1-1.4-1.9-2.1-2.5c-0.5-0.4-0.8-0.7-1-0.7c-0.1,0-0.2,0-0.2,0.1
							c0,0.2,0.1,0.5,0.3,0.9c0.2,0.5,0.4,1,0.5,1.3c0.2,0.3,0.3,0.7,0.5,1c0.2,0.3,0.3,0.6,0.3,0.8c0,0.3-0.2,0.5-0.5,0.8
							c-0.1,0.1-0.6,0.6-1.5,1.6c-0.6,0.7-1.2,1.1-1.7,1.3c-1.1,0.4-1.6,0.8-1.6,1.2c0,0.2,0.1,0.4,0.4,0.5c0.3,0.1,0.7,0.2,1.1,0.2
							c0,0,0.1,0,0.3,0c1,0,2.2-0.5,3.7-1.4c1.1-0.7,1.8-1.1,2.1-1.3c0.9,0.1,1.8,0.4,2.8,0.9c0.8,0.4,1.5,0.8,2.2,1.3
							c0.4,0.3,0.8,0.5,1.2,0.5c0.6,0,1-0.4,1-1.1c0-0.3-0.1-0.7-0.3-1.1c-0.2-0.4-0.5-0.7-0.9-1C312.8,447,311.9,446.7,310.9,446.7
							z"/>
						<path class="st20" d="M340.1,458.5c-0.3,0.5-1,0.8-1.8,0.8c-0.8,0-1.4-0.3-2.1-0.8c-0.6-0.5-0.9-1.1-0.9-1.7s0.3-1.1,0.9-1.6
							c0.6-0.4,1.3-0.7,2.1-0.7c0.7,0,1.2,0.3,1.6,0.8c0.3,0.4,0.4,0.9,0.6,1.7C340.5,457.6,340.3,458.1,340.1,458.5z M349.2,465.9
							c-0.2-0.3-0.6-0.7-1.1-1c-0.3-0.2-0.5-0.3-0.8-0.4c-0.2-0.1-0.5-0.1-0.9-0.1c-1,0.1-2,0.3-2.9,0.4c-0.6,0-1.7,0.1-3.3,0.4
							c-0.7,0.1-1.3,0.2-2,0.2c-1,0-1.5,0.1-1.5,0.4c0,0.2,0.5,0.6,1.4,1.1c0.2,0.1,0.5,0.2,0.9,0.4c0.3,0.1,0.6,0.1,0.9,0.1
							c0.2,0,0.5,0,1-0.1c0.4-0.1,0.8-0.2,1.2-0.3c0.4-0.1,0.9-0.3,1.5-0.5c0.7-0.2,1.2-0.4,1.6-0.5l0.6-0.1c0.4,0,0.6,0.1,0.7,0.3
							c0.1,0.2,0.1,0.6,0.1,1.2c0,0.6,0.1,1.7,0.2,3.5c0.2,1.7,0.3,2.9,0.4,3.5c0.8-0.7,1.5-1.8,1.9-3.3c0.3-1.1,0.5-2.3,0.5-3.6
							C349.5,466.8,349.4,466.2,349.2,465.9z M341.3,454.2c-0.7-0.7-1.7-1.1-3-1.1c-1.1,0-2.1,0.4-3.2,1.3c-1.1,0.8-1.7,1.7-1.7,2.5
							c0,1.2,0.5,2.2,1.6,3.2c1.1,1,2.2,1.4,3.3,1.4c1,0,1.9-0.4,2.7-1.1c0.9-0.8,1.4-1.9,1.4-3.2C342.4,456,342,454.9,341.3,454.2z
							 M342.5,450.5c0-0.3-0.3-0.7-1-1c-0.2-0.1-0.4-0.1-0.6-0.2c-0.2-0.1-0.4-0.1-0.6-0.1c-0.2,0-0.5,0.1-0.9,0.2
							c-0.4,0.1-0.8,0.3-1.2,0.4c-0.9,0.3-1.9,0.6-2.9,0.7c-1.1,0.2-2.1,0.2-3.1,0.2c-0.7,0-1.1,0.1-1.1,0.3c0,0.2,0.3,0.5,0.9,0.8
							c0.6,0.3,1.1,0.5,1.3,0.6c0.3,0.1,0.5,0.1,0.8,0.1c0.3,0,0.4,0,0.6-0.1c0.1,0,0.5-0.2,1.1-0.4c0.7-0.3,1.4-0.5,2.1-0.6
							c0.7-0.1,1.2-0.2,1.5-0.2c0.3,0,0.8,0,1.4,0.1c0.2,0,0.3,0,0.5,0c0.3,0,0.6-0.1,0.8-0.4C342.4,450.9,342.5,450.7,342.5,450.5z
							 M340.3,445.6c-0.6-0.2-1.2-0.4-1.8-0.4c-0.8,0-1.5-0.1-2.1-0.2c-0.7-0.1-1.3-0.3-1.8-0.5c-0.6-0.2-1-0.3-1.3-0.4
							c-0.3,0-0.4,0-0.4,0.1c0,0.1,0.4,0.7,1.3,1.6c0.6,0.6,1.3,1.2,2.2,1.6c0.9,0.5,1.7,0.7,2.3,0.6c0.8,0,1.5-0.1,1.9-0.4
							c0.4-0.3,0.6-0.6,0.6-1C341.2,446.2,340.9,445.8,340.3,445.6z M349,444.2c-0.6-0.7-1.7-1.4-3.4-2.1c-0.6-0.3-1.1-0.4-1.4-0.5
							c-0.3,0-0.4,0-0.4,0.1c0,0.2,0.4,0.7,1.1,1.5c0.7,0.8,1.2,1.3,1.3,1.5c0.4,0.6,0.6,1.4,0.6,2.5l0,2.5c-1.1,0.2-2.1,0.6-3,1.2
							c-0.5,0.3-0.9,0.7-1.3,1.2c-0.6,0.6-0.9,0.9-0.9,1c0,0.1,0.1,0.2,0.2,0.2c0.3,0,0.6-0.1,1.1-0.2c0.3-0.1,1-0.2,1.9-0.4
							c0.9-0.2,1.6-0.3,2-0.3c0,1.2,0,2.2,0,3.2c0,1,0.1,1.6,0.1,2c-0.6,0.2-1.1,0.4-1.6,0.5c-0.5,0.1-1,0.2-1.5,0.2
							c-0.1,0-0.3,0-0.6,0c-0.6,0-0.9,0.1-0.9,0.3c0,0.2,0.4,0.6,1.3,1.1c0.8,0.4,1.6,0.7,2.3,0.7c0.5,0,0.8-0.1,1.1-0.3
							c0.1,0.9,0.2,1.7,0.3,2.5c0.1,0.8,0.1,1.4,0.1,1.9c0.5-0.1,1-0.6,1.3-1.6c0.4-1,0.7-2.2,0.8-3.6c0-0.7,0.1-2.4,0.3-4.9
							c0.2-2.5,0.3-4.4,0.3-5.6C350.3,446.7,349.9,445.2,349,444.2z"/>
						<path class="st20" d="M383.7,470.6c0-0.6-0.5-0.8-1.5-0.8h-0.3c-0.1,0-0.3,0-0.5,0c-0.2,0-0.7,0.1-1.5,0.3
							c-1.4,0.3-2.3,0.4-2.9,0.4c-0.6,0-1,0-1.2-0.1c-0.3-0.1-0.4-0.4-0.4-0.8v-0.7c0-0.8-0.2-1.4-0.6-1.9c-0.4-0.4-1.1-0.8-2.1-1
							c-0.4-0.1-0.7-0.1-0.9-0.1c-0.4,0-0.6,0.1-0.6,0.3c0,0.3,0.3,0.7,0.8,1.2c0.4,0.4,0.7,0.8,0.9,1.2c0.3,0.6,0.6,1.2,0.8,1.9
							c0.2,0.7,0.7,1.4,1.5,2c1.1,0.8,2.6,1.2,4.4,1.2c1.1,0,2-0.2,2.6-0.6c0.6-0.4,1-0.9,1.3-1.6
							C383.6,471.1,383.7,470.8,383.7,470.6z M376.2,457.9c-0.6-0.4-1.9-0.8-3.8-1.2c0.3-0.4,0.6-0.8,1-1.3c0.2-0.3,0.5-0.7,0.9-1.4
							c0.4-0.6,0.7-1.2,0.7-1.6c0-0.4-0.2-0.8-0.5-1.3c-0.8-1.5-1.8-2.6-3-3.2c-0.4-0.2-0.6-0.4-0.8-0.4c-0.2-0.1-0.3,0-0.3,0.1
							c0,0.2,0.1,0.5,0.3,0.9c0.5,0.9,0.9,1.6,1,1.9c0.3,0.5,0.4,1,0.4,1.4c0,0.4-0.1,0.8-0.4,1.4c-0.8,1.3-1.8,2.7-3.1,4.2
							c-1.4,1.7-2.7,2.8-3.8,3.5c-0.7,0.4-1.1,0.8-1.1,1.1c0,0.2,0.2,0.3,0.7,0.3c0.1,0,0.3,0,0.5,0c0.2,0,0.4-0.1,0.6-0.1
							c0.9-0.3,1.9-0.8,2.9-1.6c0.8-0.6,2-1.7,3.4-3.3c0.8,0.6,1.4,1.3,2,2c1,1.2,1.5,1.8,1.5,1.9c0.3,0.4,0.6,0.6,1,0.6
							c0.3,0,0.5-0.1,0.7-0.4c0.2-0.3,0.3-0.6,0.3-1.1c0-0.3,0-0.5-0.1-0.7C377.1,458.8,376.8,458.3,376.2,457.9z M383.3,444.8
							c-0.7-0.8-1.7-1.5-3-2.1c-0.7-0.3-1.2-0.5-1.5-0.5c-0.2,0-0.2,0.1-0.2,0.2c0,0.2,0.3,0.7,0.9,1.5c0.3,0.3,0.6,0.8,1.1,1.5
							c0.3,0.6,0.5,1.4,0.5,2.5c0,0.8,0.1,3.6,0.2,8.3c0.1,2,0.1,3.6,0.1,4.7c0,0.8,0.1,2.3,0.4,4.6c0.1,0.8,0.1,1.5,0.1,2.1
							c0.6-0.5,1.1-1.4,1.4-2.5c0.3-0.9,0.5-2.1,0.6-3.4c0.2-2.2,0.4-4.3,0.5-6.4c0.1-2.1,0.2-4.3,0.2-6.3
							C384.7,447.3,384.2,445.9,383.3,444.8z"/>
						<path class="st20" d="M419.4,470.9c0-0.6-0.5-0.9-1.4-0.9c-0.3,0-0.6,0-1.1,0.1c-0.4,0.1-0.9,0.1-1.5,0.2
							c-1.1,0.2-1.8,0.3-2.2,0.3c-0.2,0-0.4,0-0.7-0.1c-0.8-0.1-1.4-0.3-1.7-0.5c-0.3-0.2-0.4-0.4-0.4-0.7c0-0.2,0.1-0.4,0.1-0.6
							c0.1-0.2,0.1-0.5,0.1-0.7c0-0.7-0.2-1.2-0.7-1.7c-0.5-0.4-1.2-0.7-2-0.9c-0.2,0-0.4-0.1-0.5-0.1c-0.5,0-0.8,0.2-0.8,0.5
							c0,0.3,0.3,0.7,0.8,1.2c0.4,0.3,0.7,0.7,0.9,1.2c0.1,0.1,0.2,0.6,0.4,1.2c0.2,0.7,0.6,1.4,1.2,2c0.5,0.5,0.9,0.9,1.4,1.1
							c0.5,0.4,1,0.6,1.4,0.8c0.4,0.1,0.9,0.2,1.5,0.2c0.9,0,1.8-0.1,2.5-0.3c1-0.3,1.7-0.7,2.1-1.2
							C419.2,471.6,419.4,471.2,419.4,470.9z M408.4,458.4c0.1-0.7,0.1-1.2,0.1-1.5c0-0.6-0.1-1.1-0.3-1.4c-0.3-0.5-0.8-1-1.2-1.3
							c-0.3-0.2-0.7-0.5-1.2-0.7c0.2-0.2,0.5-0.5,0.9-0.8c0.5-0.5,0.8-0.9,1-1.2c0.2-0.3,0.4-0.6,0.4-1c0-0.2,0-0.4-0.1-0.7
							c-0.1-0.2-0.2-0.5-0.3-0.6c-0.2-0.3-0.6-0.7-1.1-1.2c-0.5-0.5-0.9-0.9-1.3-1.1c-0.7-0.5-1.1-0.7-1.4-0.7
							c-0.2,0-0.3,0.1-0.3,0.2c0,0.3,0.2,0.7,0.6,1.3c0.3,0.5,0.5,0.8,0.6,0.9c0.2,0.3,0.3,0.6,0.3,0.9c0,0.3-0.1,0.5-0.2,0.7
							c-0.7,1.3-1.5,2.4-2.4,3.5c-1.1,1.3-2.3,2.4-3.4,3.1c-0.8,0.5-1.2,0.9-1.2,1.2c0,0.2,0.2,0.3,0.6,0.3c0.3,0,0.8-0.1,1.3-0.3
							c0.9-0.3,1.9-0.8,2.9-1.5c0.8-0.5,1.6-1.2,2.5-2c0.6,0.4,0.9,0.9,0.9,1.6c0.1,0.8,0.2,1.6,0.3,2.3c0.1,0.7,0.3,1.4,0.5,2.1
							c0.1,0.4,0.3,0.7,0.4,0.9c0.1,0.2,0.3,0.3,0.4,0.3c0.2,0,0.4-0.2,0.6-0.6c0.2-0.4,0.3-0.8,0.3-1.2
							C408.3,459.5,408.3,459,408.4,458.4z M413.6,447.5c-0.4-0.6-0.9-1-1.5-1.2c-0.8-0.4-1.4-0.6-1.8-0.6c-0.2,0-0.3,0.1-0.3,0.2
							c0,0.3,0.3,0.8,0.9,1.6c0.3,0.4,0.5,0.8,0.6,1c0.1,0.3,0.1,0.7,0.1,1.3c0,0.2,0.1,0.5,0.1,1v1.7v0.4c-0.5,0.3-0.7,0.4-0.8,0.4
							c-0.3,0.1-0.6,0.2-0.9,0.2c-0.3,0-0.4,0-0.6-0.1c-0.4,0-0.6,0-0.6,0.2c0,0.1,0.2,0.4,0.5,0.7c0.6,0.8,1.2,1.1,1.9,1.1
							c0.3,0,0.5,0,0.7-0.1v1.6c0,0.8,0.1,1.8,0.2,2.9c0.1,1.1,0.3,2.2,0.6,3.3c0.7-0.4,1.2-1.4,1.5-2.8c0.2-1,0.3-2.1,0.3-3.2
							l0.1-6.8C414.6,449.2,414.2,448.3,413.6,447.5z M419.5,444.2c-0.8-0.9-1.8-1.5-3.2-2c-0.7-0.2-1.2-0.3-1.6-0.3
							c-0.3,0-0.4,0.1-0.4,0.2c0,0.3,0.3,0.8,1,1.5c0.8,0.9,1.3,1.6,1.5,2.2c0.2,0.6,0.3,1.5,0.3,2.8l0,11.3c0,0.7,0.1,1.9,0.2,3.7
							c0.1,1.8,0.2,3.1,0.3,4c0.9-0.8,1.5-2.2,2-4.1c0.4-1.6,0.6-3.3,0.6-5.1l0.3-11C420.6,446.1,420.2,445.1,419.5,444.2z"/>
						<path class="st20" d="M444.5,449.4c-0.5-0.4-1-0.7-1.7-0.8c-0.1,0-0.3,0-0.5-0.1H442c-0.5,0-0.9,0.1-1.2,0.2
							c-0.7,0.4-1.3,0.7-2,1.1c-0.5,0.2-1,0.4-1.4,0.4c-0.5,0.1-1.2,0.1-2.3,0.1h-0.6h-0.6c-0.1,0-0.2,0-0.4,0
							c-0.5,0-0.8,0.1-0.8,0.3c0,0.3,0.4,0.6,1.1,1c0.7,0.3,1.2,0.6,1.6,0.7c0.4,0.1,1,0.3,1.7,0.3c-0.1,1-0.3,2.3-0.4,3.9
							c-0.1,1.6-0.2,2.8-0.2,3.6c0,1.1,0.5,2.1,1.4,2.7c0.8,0.6,1.8,0.9,2.9,0.9c1,0,1.8-0.1,2.4-0.3c0.6-0.2,1.2-0.5,1.7-1.1
							c0.3-0.4,0.5-0.7,0.5-1.1c0-0.3-0.1-0.6-0.4-0.8c-0.3-0.2-0.7-0.2-1.2-0.2c-0.2,0-0.8,0.2-1.8,0.4c-1,0.2-1.7,0.3-2.3,0.3
							c-0.4,0-0.7-0.1-0.9-0.4c-0.2-0.3-0.3-0.8-0.3-1.5c0-0.2,0-0.5,0.1-1.1c0.1-0.5,0.1-0.9,0.2-1.1c0.4,0.1,1,0.2,1.8,0.5
							c0.6,0.2,1.1,0.3,1.5,0.3c0.4,0,0.8-0.2,1.2-0.3c0.4-0.2,0.7-0.4,1-0.7c0.3-0.3,0.4-0.5,0.4-0.8c0-0.2-0.1-0.4-0.2-0.6
							c-0.2-0.1-0.4-0.3-0.7-0.4c-0.3-0.1-0.6-0.2-0.9-0.2c-0.3,0-0.8,0.1-1.7,0.3c-0.9,0.2-1.6,0.3-2.3,0.3
							c0.1-0.6,0.1-1.2,0.2-1.7c0.1-0.5,0.2-1,0.3-1.4c0.4-0.2,0.9-0.4,1.4-0.6c0.5-0.2,1-0.3,1.5-0.3c0.3,0,0.4,0,0.6,0
							c0.1,0,0.3,0,0.6,0c0.9,0,1.4-0.4,1.5-1.2C445.2,450.2,445,449.8,444.5,449.4z M452.3,444.8c-0.7-0.8-1.7-1.5-3.2-2.2
							c-0.9-0.4-1.6-0.6-2-0.6c-0.3,0-0.4,0.1-0.4,0.2c0,0.3,0.4,0.9,1.1,1.6c0.7,0.7,1.1,1.4,1.4,2c0.3,0.7,0.4,1.5,0.4,2.5
							c0,0.6,0,1.6,0.1,3c0.1,1.4,0.1,2.5,0.1,3.2c-0.5,0.1-1,0.3-1.6,0.5c-0.6,0.2-1.3,0.3-2.1,0.4c-0.8,0.1-1.2,0.3-1.2,0.5
							c0,0.2,0.4,0.5,1.1,1c0.8,0.6,1.5,0.9,1.9,0.9c0.2,0,0.5-0.1,0.8-0.2c0.4-0.1,0.8-0.3,1.2-0.4c0,0.8,0,2.3,0.1,4.5
							c0.1,2.2,0.1,3.7,0.1,4.5c0,0.8,0.1,2.1,0.2,3.7c0.1,1.6,0.2,2.6,0.2,3c0.7-0.7,1.3-1.8,1.7-3.2c0.5-1.4,0.7-2.9,0.7-4.5
							c0-1.2,0-2.9,0.1-5.1c0.1-2.2,0.2-4.2,0.2-6.1c0.1-1.9,0.1-3.8,0.1-5.7C453.5,446.9,453.1,445.7,452.3,444.8z"/>
					</g>
				</g>
			</g>
		</g>
	</g>
</g>
</svg>
